{
	"asset":{
		"generator":"Khronos glTF Blender I/O v4.3.47",
		"version":"2.0"
	},
	"scene":0,
	"scenes":[
		{
			"name":"Scene",
			"nodes":[
				0,
				1
			]
		}
	],
	"nodes":[
		{
			"mesh":0,
			"name":"side 1",
			"rotation":[
				0.3665013313293457,
				0,
				0,
				0.930417537689209
			],
			"scale":[
				0.010000670328736305,
				0.9200000762939453,
				0.04000066965818405
			],
			"translation":[
				-21.087160110473633,
				-3.5143418312072754,
				-15.872127532958984
			]
		},
		{
			"mesh":1,
			"name":"side 1.001",
			"rotation":[
				-0.35020747780799866,
				0,
				0,
				0.9366721510887146
			],
			"scale":[
				0.010000670328736305,
				0.9200000762939453,
				0.04000066965818405
			],
			"translation":[
				-21.092897415161133,
				-3.4525883197784424,
				-15.88212776184082
			]
		}
	],
	"materials":[
		{
			"doubleSided":true,
			"name":"E7001EFF"
		},
		{
			"doubleSided":true,
			"name":"Material.001"
		}
	],
	"meshes":[
		{
			"name":"Cube.001",
			"primitives":[
				{
					"attributes":{
						"POSITION":0,
						"NORMAL":1,
						"TEXCOORD_0":2
					},
					"indices":3,
					"material":0
				}
			]
		},
		{
			"name":"Cube.002",
			"primitives":[
				{
					"attributes":{
						"POSITION":4,
						"NORMAL":5,
						"TEXCOORD_0":6
					},
					"indices":3,
					"material":1
				}
			]
		}
	],
	"accessors":[
		{
			"bufferView":0,
			"componentType":5126,
			"count":24,
			"max":[
				14.952848434448242,
				1.7672889232635498,
				6.961627960205078
			],
			"min":[
				-14.952848434448242,
				-1.7672889232635498,
				-6.961627960205078
			],
			"type":"VEC3"
		},
		{
			"bufferView":1,
			"componentType":5126,
			"count":24,
			"type":"VEC3"
		},
		{
			"bufferView":2,
			"componentType":5126,
			"count":24,
			"type":"VEC2"
		},
		{
			"bufferView":3,
			"componentType":5123,
			"count":36,
			"type":"SCALAR"
		},
		{
			"bufferView":4,
			"componentType":5126,
			"count":24,
			"max":[
				14.952848434448242,
				1.7672889232635498,
				6.961627960205078
			],
			"min":[
				-14.952848434448242,
				-1.7672889232635498,
				-6.961627960205078
			],
			"type":"VEC3"
		},
		{
			"bufferView":5,
			"componentType":5126,
			"count":24,
			"type":"VEC3"
		},
		{
			"bufferView":6,
			"componentType":5126,
			"count":24,
			"type":"VEC2"
		}
	],
	"bufferViews":[
		{
			"buffer":0,
			"byteLength":288,
			"byteOffset":0,
			"target":34962
		},
		{
			"buffer":0,
			"byteLength":288,
			"byteOffset":288,
			"target":34962
		},
		{
			"buffer":0,
			"byteLength":192,
			"byteOffset":576,
			"target":34962
		},
		{
			"buffer":0,
			"byteLength":72,
			"byteOffset":768,
			"target":34963
		},
		{
			"buffer":0,
			"byteLength":288,
			"byteOffset":840,
			"target":34962
		},
		{
			"buffer":0,
			"byteLength":288,
			"byteOffset":1128,
			"target":34962
		},
		{
			"buffer":0,
			"byteLength":192,
			"byteOffset":1416,
			"target":34962
		}
	],
	"buffers":[
		{
			"byteLength":1608,
			"uri":"X%20Mark.bin"
		}
	]
}
